<svg id="푸터_깃허브" data-name="푸터 깃허브" xmlns="http://www.w3.org/2000/svg" width="20" height="20" viewBox="0 0 20 20">
  <path id="패스_33" data-name="패스 33" d="M18.659,10.47A10.085,10.085,0,0,0,15.019,6.74,9.6,9.6,0,0,0,10,5.365,9.6,9.6,0,0,0,4.98,6.74,10.084,10.084,0,0,0,1.341,10.47,10.221,10.221,0,0,0,0,15.615a10.131,10.131,0,0,0,1.908,6.026,9.813,9.813,0,0,0,4.928,3.7.572.572,0,0,0,.521-.093.528.528,0,0,0,.169-.4q0-.04-.007-.721t-.007-1.188l-.3.053a3.728,3.728,0,0,1-.723.047,5.376,5.376,0,0,1-.9-.093,2,2,0,0,1-.872-.4,1.693,1.693,0,0,1-.573-.821l-.13-.307a3.351,3.351,0,0,0-.41-.681,1.583,1.583,0,0,0-.566-.507l-.091-.067a.965.965,0,0,1-.169-.16.735.735,0,0,1-.117-.187q-.039-.094.065-.154a.826.826,0,0,1,.378-.06l.26.04a1.881,1.881,0,0,1,.645.32,2.134,2.134,0,0,1,.631.694,2.334,2.334,0,0,0,.723.834,1.508,1.508,0,0,0,.853.287,3.615,3.615,0,0,0,.742-.067,2.546,2.546,0,0,0,.586-.2,2.184,2.184,0,0,1,.638-1.375,8.718,8.718,0,0,1-1.335-.24,5.242,5.242,0,0,1-1.224-.521,3.527,3.527,0,0,1-1.048-.894,4.339,4.339,0,0,1-.683-1.4,6.82,6.82,0,0,1-.267-2,3.948,3.948,0,0,1,1.029-2.75,3.671,3.671,0,0,1,.091-2.723,1.785,1.785,0,0,1,1.12.18,7.742,7.742,0,0,1,1.087.514q.345.213.553.36a9.182,9.182,0,0,1,5,0l.495-.32a6.934,6.934,0,0,1,1.2-.587,1.668,1.668,0,0,1,1.055-.147,3.636,3.636,0,0,1,.1,2.723,3.949,3.949,0,0,1,1.029,2.75,6.9,6.9,0,0,1-.267,2.009,4.17,4.17,0,0,1-.69,1.4,3.661,3.661,0,0,1-1.055.888,5.252,5.252,0,0,1-1.224.521,8.709,8.709,0,0,1-1.335.241,2.41,2.41,0,0,1,.677,1.9v2.816a.538.538,0,0,0,.163.4.555.555,0,0,0,.514.093,9.812,9.812,0,0,0,4.928-3.7A10.133,10.133,0,0,0,20,15.615,10.229,10.229,0,0,0,18.659,10.47Z" transform="translate(0 -5.365)" fill="#fff"/>
</svg>
