<svg xmlns="http://www.w3.org/2000/svg" width="116" height="104.172" viewBox="0 0 116 104.172">
  <g id="일정수정_발표_아이콘" data-name="일정수정 발표 아이콘" transform="translate(-714.848 -366.471)">
    <path id="사각형_460" data-name="사각형 460" d="M5,0h7.038a0,0,0,0,1,0,0V30.642a0,0,0,0,1,0,0H5a5,5,0,0,1-5-5V5A5,5,0,0,1,5,0Z" transform="translate(714.848 396.597)" fill="#f57278"/>
    <path id="사각형_461" data-name="사각형 461" d="M8,0H30.642a0,0,0,0,1,0,0V44.868a0,0,0,0,1,0,0H8a8,8,0,0,1-8-8V8A8,8,0,0,1,8,0Z" transform="translate(733.451 390.031)" fill="#f57278"/>
    <path id="패스_191" data-name="패스 191" d="M72.211,0l19.37,32a2.663,2.663,0,0,1-2.3,4H2.667a2.663,2.663,0,0,1-2.3-4L19.847,0Z" transform="translate(770.881 458.416) rotate(-90)" fill="#f57278"/>
    <rect id="사각형_462" data-name="사각형 462" width="17.509" height="6.566" rx="3" transform="translate(813.338 409.729)" fill="#f57278"/>
    <rect id="사각형_463" data-name="사각형 463" width="17.308" height="6.657" rx="3" transform="translate(809.727 395.573) rotate(-45)" fill="#f57278"/>
    <rect id="사각형_464" data-name="사각형 464" width="17.308" height="6.657" rx="3" transform="translate(814.434 424.607) rotate(45)" fill="#f57278"/>
    <path id="패스_192" data-name="패스 192" d="M18.635,0l0,30.4a3.994,3.994,0,0,1-3.994,3.994H3.994A3.994,3.994,0,0,1,0,30.4L.521,10.884Z" transform="translate(744.902 431.563) rotate(31)" fill="#f57278"/>
  </g>
</svg>
