<svg xmlns="http://www.w3.org/2000/svg" width="137.447" height="104" viewBox="0 0 137.447 104">
  <g id="일정수정_원서작성_아이콘" data-name="일정수정 원서작성 아이콘" transform="translate(-354.852 -354)">
    <path id="Icon_awesome-file-alt" data-name="Icon awesome-file-alt" d="M48.5,27.625V0H5.2A5.031,5.031,0,0,0,0,4.875v94.25A5.031,5.031,0,0,0,5.2,104H77.952a5.031,5.031,0,0,0,5.2-4.875V32.5H53.7A5.058,5.058,0,0,1,48.5,27.625ZM62.361,75.563A2.529,2.529,0,0,1,59.763,78H23.385a2.529,2.529,0,0,1-2.6-2.437V73.938a2.529,2.529,0,0,1,2.6-2.437H59.763a2.529,2.529,0,0,1,2.6,2.438Zm0-13A2.529,2.529,0,0,1,59.763,65H23.385a2.529,2.529,0,0,1-2.6-2.437V60.938a2.529,2.529,0,0,1,2.6-2.437H59.763a2.529,2.529,0,0,1,2.6,2.438Zm0-14.625v1.625A2.529,2.529,0,0,1,59.763,52H23.385a2.529,2.529,0,0,1-2.6-2.437V47.938a2.529,2.529,0,0,1,2.6-2.437H59.763A2.529,2.529,0,0,1,62.361,47.938ZM83.148,24.761V26H55.432V0h1.321a5.373,5.373,0,0,1,3.681,1.422l21.2,19.906A4.712,4.712,0,0,1,83.148,24.761Z" transform="translate(354.852 354)" fill="#f57278"/>
    <path id="Icon_metro-pencil" data-name="Icon metro-pencil" d="M64.077,8.928A14.455,14.455,0,0,1,75.641,32.056l-5.782,5.782L49.621,17.6,55.4,11.819a14.39,14.39,0,0,1,8.673-2.891ZM6.8,60.426C4.5,63.99.906,78.168,4.526,82.014s18.364,1.032,22.507-1.35S69.522,38.176,69.522,38.176L49.284,17.939S9.093,56.862,6.8,60.426Zm47.871-22.65L25.188,67.254,20.2,62.271,49.683,32.793Z" transform="translate(411.467 352.072)" fill="#f57278" stroke="#fff" stroke-width="4.6"/>
    <rect id="사각형_459" data-name="사각형 459" width="8" height="6" transform="translate(433.5 410)" fill="#fff"/>
  </g>
</svg>
