<svg xmlns="http://www.w3.org/2000/svg" width="25.865" height="22.166" viewBox="0 0 25.865 22.166">
  <path id="어드민_로그인_눈_감은거" data-name="어드민 로그인 눈 감은거" d="M15.186,9.164A5.863,5.863,0,0,1,21.068,15a5.614,5.614,0,0,1-.421,2.136l3.434,3.406A13.8,13.8,0,0,0,28.115,15,13.929,13.929,0,0,0,10.493,7.063l2.54,2.522A5.816,5.816,0,0,1,15.186,9.164ZM3.428,5.983,6.112,8.644l.543.537A13.733,13.733,0,0,0,2.25,15a13.95,13.95,0,0,0,18.084,7.769l.5.491,3.446,3.406,1.5-1.483L4.917,4.5Zm6.5,6.448,1.824,1.807a3.306,3.306,0,0,0-.092.756,3.509,3.509,0,0,0,3.527,3.5,3.317,3.317,0,0,0,.762-.092l1.824,1.807A5.851,5.851,0,0,1,9.3,14.988,5.766,5.766,0,0,1,9.927,12.431ZM15,11.525,18.7,15.2l.023-.185a3.509,3.509,0,0,0-3.527-3.5Z" transform="translate(-2.25 -4.5)"/>
</svg>
