<svg xmlns="http://www.w3.org/2000/svg" xmlns:xlink="http://www.w3.org/1999/xlink" width="2102.225" height="1243.582" viewBox="0 0 2102.225 1243.582">
  <defs>
    <linearGradient id="linear-gradient" x1="0.5" x2="0.5" y2="1" gradientUnits="objectBoundingBox">
      <stop offset="0" stop-color="#f88"/>
      <stop offset="1" stop-color="#ef6268"/>
    </linearGradient>
  </defs>
  <g id="어드민_로그인_일정보기_배경" data-name="어드민 로그인&amp;일정보기 배경" transform="translate(77.453 35.483)">
    <path id="패스_63" data-name="패스 63" d="M146.372,58.489A73.786,73.786,0,0,1,148,74V294a76.986,76.986,0,0,1-1.867,16.419L23.065,210.761Z" transform="translate(149.274 -90.217) rotate(51)" opacity="0.4" fill="url(#linear-gradient)"/>
    <path id="패스_67" data-name="패스 67" d="M166,217.715V680.171L1.648,882.54A82.906,82.906,0,0,1,0,866V83Z" transform="translate(1984.807 523.693) rotate(51)" opacity="0.4" fill="url(#linear-gradient)"/>
    <path id="패스_68" data-name="패스 68" d="M60,155.248V346a30,30,0,0,1-60,0V106.3Z" transform="translate(2003.207 763.369) rotate(51)" opacity="0.4" fill="url(#linear-gradient)"/>
    <path id="패스_65" data-name="패스 65" d="M19,0A19,19,0,0,1,38,19V125a19.7,19.7,0,0,1-.539,4.513L0,99.245V19A19,19,0,0,1,19,0Z" transform="translate(76.801 937) rotate(51)" opacity="0.4" fill="url(#linear-gradient)"/>
    <path id="패스_66" data-name="패스 66" d="M43,0A43,43,0,0,1,86,43l-.282,221.463L12.581,354.8-.05,344.555,0,43A43,43,0,0,1,43,0Z" transform="translate(267.801 847) rotate(51)" opacity="0.4" fill="url(#linear-gradient)"/>
    <rect id="사각형_238" data-name="사각형 238" width="38" height="66" rx="19" transform="translate(138.445 886) rotate(51)" opacity="0.4" fill="url(#linear-gradient)"/>
    <path id="패스_64" data-name="패스 64" d="M35.5,0A35.5,35.5,0,0,1,71,35.5v115a30.042,30.042,0,0,1-.7,7.2L0,100.871V35.5A35.5,35.5,0,0,1,35.5,0Z" transform="translate(78.318 177.624) rotate(51)" fill="#f57278" opacity="0.4"/>
  </g>
</svg>
