<svg xmlns="http://www.w3.org/2000/svg" width="149.301" height="104" viewBox="0 0 149.301 104">
  <g id="일정수정_발표_및_등록_아이콘" data-name="일정수정 발표 및 등록 아이콘" transform="translate(20617 -4757)">
    <g id="그룹_126" data-name="그룹 126" transform="translate(-22050 4383)">
      <path id="Icon_awesome-file-alt" data-name="Icon awesome-file-alt" d="M31.029,17.672V0H3.324A3.219,3.219,0,0,0,0,3.119V63.412a3.219,3.219,0,0,0,3.324,3.119H49.867a3.219,3.219,0,0,0,3.324-3.119V20.791H34.353A3.236,3.236,0,0,1,31.029,17.672Zm8.865,30.667A1.618,1.618,0,0,1,38.232,49.9H14.96A1.618,1.618,0,0,1,13.3,48.339V47.3A1.618,1.618,0,0,1,14.96,45.74H38.232A1.618,1.618,0,0,1,39.894,47.3Zm0-8.316a1.618,1.618,0,0,1-1.662,1.559H14.96A1.618,1.618,0,0,1,13.3,40.023v-1.04a1.618,1.618,0,0,1,1.662-1.559H38.232a1.618,1.618,0,0,1,1.662,1.559Zm0-9.356v1.04a1.618,1.618,0,0,1-1.662,1.559H14.96A1.618,1.618,0,0,1,13.3,31.706v-1.04a1.618,1.618,0,0,1,1.662-1.559H38.232A1.618,1.618,0,0,1,39.894,30.667Zm13.3-14.827v.793H35.461V0h.845a3.437,3.437,0,0,1,2.355.91L52.222,13.644A3.014,3.014,0,0,1,53.192,15.84Z" transform="translate(1493.543 411.469)" fill="#f57278"/>
      <g id="그룹_101" data-name="그룹 101" transform="translate(1531.671 415.947)">
        <path id="Icon_metro-pencil" data-name="Icon metro-pencil" d="M42.067,8.928a9.247,9.247,0,0,1,7.4,14.8l-3.7,3.7L32.819,14.476l3.7-3.7A9.206,9.206,0,0,1,42.067,8.928ZM5.423,41.873c-1.47,2.28-3.767,11.35-1.451,13.81s11.748.66,14.4-.864S45.55,27.639,45.55,27.639L32.6,14.692S6.892,39.592,5.423,41.873ZM36.047,27.383,17.189,46.241,14,43.053,32.859,24.2Z" transform="translate(-2.986 -8.928)" fill="#f57278" stroke="#fff" stroke-width="4.6"/>
        <rect id="사각형_459" data-name="사각형 459" width="5.118" height="3.838" transform="translate(12.185 31.347)" fill="#fff"/>
        <path id="패스_193" data-name="패스 193" d="M6.947,34.45,29.89,11.9" fill="none" stroke="#f57278" stroke-width="3"/>
        <path id="패스_194" data-name="패스 194" d="M6.947,34.45,29.89,11.9" transform="translate(7 6)" fill="none" stroke="#f57278" stroke-width="3"/>
      </g>
    </g>
    <g id="그룹_127" data-name="그룹 127" transform="translate(-22041 4396)">
      <path id="사각형_460" data-name="사각형 460" d="M5,0H7.422a0,0,0,0,1,0,0V18.893a0,0,0,0,1,0,0H5a5,5,0,0,1-5-5V5A5,5,0,0,1,5,0Z" transform="translate(1424.001 379.575)" fill="#f57278"/>
      <path id="사각형_461" data-name="사각형 461" d="M8,0H18.893a0,0,0,0,1,0,0V27.664a0,0,0,0,1,0,0H8a8,8,0,0,1-8-8V8A8,8,0,0,1,8,0Z" transform="translate(1435.472 375.526)" fill="#f57278"/>
      <path id="패스_192" data-name="패스 192" d="M11.49,0l0,18.742A2.463,2.463,0,0,1,9.03,21.2H2.463A2.463,2.463,0,0,1,0,18.742L.321,6.711Z" transform="translate(1442.532 401.134) rotate(31)" fill="#f57278"/>
      <g id="사각형_462" data-name="사각형 462" transform="translate(1484.728 387.672)" fill="#f57278" stroke="#fff" stroke-width="3">
        <rect width="10.796" height="4.048" rx="2.024" stroke="none"/>
        <rect x="-1.5" y="-1.5" width="13.796" height="7.048" rx="3.524" fill="none"/>
      </g>
      <g id="사각형_463" data-name="사각형 463" transform="translate(1482.501 378.943) rotate(-45)" fill="#f57278" stroke="#fff" stroke-width="3">
        <rect width="10.672" height="4.105" rx="2.052" stroke="none"/>
        <rect x="-1.5" y="-1.5" width="13.672" height="7.105" rx="3.552" fill="none"/>
      </g>
      <g id="사각형_464" data-name="사각형 464" transform="translate(1485.402 396.845) rotate(45)" fill="#f57278" stroke="#fff" stroke-width="3">
        <rect width="10.672" height="4.105" rx="2.052" stroke="none"/>
        <rect x="-1.5" y="-1.5" width="13.672" height="7.105" rx="3.552" fill="none"/>
      </g>
      <path id="패스_191" data-name="패스 191" d="M44.523,0,56.466,19.731a1.642,1.642,0,0,1-1.42,2.466H1.644a1.642,1.642,0,0,1-1.42-2.466L12.237,0Z" transform="translate(1458.549 417.691) rotate(-90)" fill="#f57278"/>
    </g>
  </g>
</svg>
